<?xml version="1.0" encoding="UTF-8" standalone="no"?>
<!-- Created with Inkscape (http://www.inkscape.org/) -->

<svg
   width="54.615582mm"
   height="20.666431mm"
   viewBox="0 0 54.615582 20.666431"
   version="1.1"
   id="svg5"
   inkscape:version="1.1.1 (3bf5ae0d25, 2021-09-20)"
   sodipodi:docname="visdata_logo.svg"
   xmlns:inkscape="http://www.inkscape.org/namespaces/inkscape"
   xmlns:sodipodi="http://sodipodi.sourceforge.net/DTD/sodipodi-0.dtd"
   xmlns="http://www.w3.org/2000/svg"
   xmlns:svg="http://www.w3.org/2000/svg">
  <sodipodi:namedview
     id="namedview7"
     pagecolor="#ffffff"
     bordercolor="#666666"
     borderopacity="1.0"
     inkscape:pageshadow="2"
     inkscape:pageopacity="0.0"
     inkscape:pagecheckerboard="0"
     inkscape:document-units="mm"
     showgrid="false"
     inkscape:zoom="1.542504"
     inkscape:cx="-47.001499"
     inkscape:cy="-166.28806"
     inkscape:window-width="1920"
     inkscape:window-height="1027"
     inkscape:window-x="-8"
     inkscape:window-y="-8"
     inkscape:window-maximized="1"
     inkscape:current-layer="layer1"
     width="555mm"
     units="mm"
     fit-margin-left="2"
     fit-margin-right="2"
     fit-margin-top="2"
     fit-margin-bottom="2"
     lock-margins="false" />
  <defs
     id="defs2">
    <rect
       x="126.4591"
       y="135.82645"
       width="212.3264"
       height="87.428513"
       id="rect1243" />
  </defs>
  <g
     inkscape:label="Ebene 1"
     inkscape:groupmode="layer"
     id="layer1"
     transform="translate(-32.189613,-37)">
    <rect
       style="display:inline;fill:#000000;stroke-width:0.39648;stroke-miterlimit:4;stroke-dasharray:none"
       id="rect32411-2"
       width="41.229549"
       height="1.5"
       x="43.575645"
       y="49.5881"
       inkscape:label="bottom-bar" />
    <rect
       style="fill:#000000;stroke-width:0.393575;stroke-miterlimit:4;stroke-dasharray:none"
       id="rect82125"
       width="40.627674"
       height="1.5"
       x="41.307175"
       y="39"
       inkscape:label="new-bar" />
    <g
       aria-label="VISDATA"
       transform="matrix(0.26458333,0,0,0.26458333,0.63421076,0.06029501)"
       id="text1241"
       style="font-size:40px;line-height:1.25;letter-spacing:0px;word-spacing:0px;white-space:pre;shape-inside:url(#rect1243);display:inline"
       inkscape:label="text-visdata">
      <path
         d="m 148.17772,183.86638 h -7.78645 l -13.5677,-36.69269 h 8.02083 l 7.55207,23.5677 q 0.70313,2.29166 1.92709,6.92708 l 0.54687,-2.23959 1.32813,-4.68749 7.52603,-23.5677 h 7.94271 z"
         style="font-size:53.3333px"
         id="path82800" />
      <path
         d="m 164.70766,183.86638 v -27.51953 h 5.76172 v 27.51953 z"
         style="font-weight:bold;font-family:'Liberation Sans';-inkscape-font-specification:'Liberation Sans, Bold'"
         id="path82802" />
      <path
         d="m 198.26235,175.93669 q 0,4.04297 -3.00781,6.19141 -2.98829,2.1289 -8.78907,2.1289 -5.29297,0 -8.30078,-1.875 -3.00781,-1.875 -3.86719,-5.68359 l 5.56641,-0.91797 q 0.56641,2.1875 2.20703,3.1836 1.64063,0.97656 4.55078,0.97656 6.03516,0 6.03516,-3.67188 0,-1.17187 -0.70313,-1.93359 -0.68359,-0.76172 -1.95312,-1.26953 -1.25,-0.50781 -4.82422,-1.23047 -3.08594,-0.72266 -4.29687,-1.15234 -1.21094,-0.44922 -2.1875,-1.03516 -0.97657,-0.60547 -1.66016,-1.44531 -0.68359,-0.83985 -1.07422,-1.97266 -0.37109,-1.13281 -0.37109,-2.59766 0,-3.73046 2.79297,-5.70312 2.8125,-1.99219 8.16406,-1.99219 5.11719,0 7.67578,1.60156 2.57812,1.60157 3.32031,5.29297 l -5.58594,0.76172 q -0.42968,-1.77734 -1.75781,-2.67578 -1.30859,-0.89844 -3.76953,-0.89844 -5.23437,0 -5.23437,3.28125 0,1.07422 0.54687,1.75782 0.56641,0.68359 1.66016,1.17187 1.09375,0.46875 4.43359,1.19141 3.96484,0.83984 5.66406,1.5625 1.71875,0.70312 2.71485,1.66015 0.99609,0.9375 1.52343,2.26563 0.52735,1.30859 0.52735,3.02734 z"
         style="font-weight:bold;font-family:'Liberation Sans';-inkscape-font-specification:'Liberation Sans, Bold'"
         id="path82804" />
      <path
         d="m 236.10086,165.2466 q 0,5.67708 -2.23958,9.92187 -2.21354,4.21875 -6.30208,6.45833 -4.06249,2.23958 -9.32291,2.23958 h -14.84374 v -36.69269 h 13.28124 q 9.27083,0 14.34895,4.6875 5.07812,4.66146 5.07812,13.38541 z m -7.73437,0 q 0,-5.91146 -3.07291,-9.01041 -3.07292,-3.125 -8.77604,-3.125 h -5.4427 v 24.81769 h 6.51041 q 4.94791,0 7.86458,-3.41145 2.91666,-3.41146 2.91666,-9.27083 z"
         style="font-size:53.3333px;fill:#ff0000"
         id="path82806" />
      <path
         d="m 260.46936,183.86638 -2.44141,-7.03125 h -10.48828 l -2.4414,7.03125 h -5.76172 l 10.03906,-27.51953 h 6.79688 l 10,27.51953 z m -7.69531,-23.28125 -0.11719,0.42969 q -0.19531,0.70312 -0.46875,1.60156 -0.27344,0.89844 -3.35937,9.88281 h 7.91015 l -2.71484,-7.91015 -0.83985,-2.65625 z"
         style="font-weight:bold;font-family:'Liberation Sans';-inkscape-font-specification:'Liberation Sans, Bold'"
         id="path82808" />
      <path
         d="m 279.35608,160.79997 v 23.06641 h -5.76172 v -23.06641 h -8.88672 v -4.45312 h 23.55469 v 4.45312 z"
         style="font-weight:bold;font-family:'Liberation Sans';-inkscape-font-specification:'Liberation Sans, Bold'"
         id="path82810" />
      <path
         d="m 307.85217,183.86638 -2.4414,-7.03125 h -10.48828 l -2.44141,7.03125 h -5.76172 l 10.03906,-27.51953 h 6.79688 l 10,27.51953 z m -7.69531,-23.28125 -0.11719,0.42969 q -0.19531,0.70312 -0.46875,1.60156 -0.27343,0.89844 -3.35937,9.88281 h 7.91015 l -2.71484,-7.91015 -0.83984,-2.65625 z"
         style="font-weight:bold;font-family:'Liberation Sans';-inkscape-font-specification:'Liberation Sans, Bold'"
         id="path82812" />
    </g>
    <g
       aria-label="visualization"
       id="text50755-0"
       style="font-size:4.93889px;line-height:1.25;letter-spacing:0px;word-spacing:0px;fill:#1f77b4;stroke-width:0.264583"
       inkscape:label="text-visualization">
      <path
         d="m 49.585024,52.895541 h 0.863341 l 0.672827,1.866553 0.670416,-1.866553 h 0.865753 l -1.063501,2.700956 h -0.947746 z"
         style="font-weight:bold;-inkscape-font-specification:'sans-serif Bold'"
         id="path82755" />
      <path
         d="m 53.144497,52.895541 h 0.863341 v 2.700956 h -0.863341 z m 0,-1.051443 h 0.863341 v 0.704177 h -0.863341 z"
         style="font-weight:bold;-inkscape-font-specification:'sans-serif Bold'"
         id="path82757" />
      <path
         d="m 56.947539,52.979946 v 0.655946 q -0.27733,-0.115755 -0.535368,-0.173633 -0.258038,-0.05788 -0.487137,-0.05788 -0.245979,0 -0.366558,0.0627 -0.118167,0.06029 -0.118167,0.188102 0,0.103697 0.08923,0.159163 0.09164,0.05547 0.325562,0.08199 l 0.151929,0.0217 q 0.663181,0.08441 0.89228,0.27733 0.229099,0.192925 0.229099,0.605303 0,0.431671 -0.318327,0.648712 -0.318327,0.217041 -0.950158,0.217041 -0.267684,0 -0.55466,-0.04341 -0.284565,-0.041 -0.586011,-0.125402 v -0.655946 q 0.258037,0.125401 0.528133,0.188102 0.272507,0.0627 0.552249,0.0627 0.253214,0 0.381028,-0.06993 0.127813,-0.06994 0.127813,-0.207395 0,-0.115755 -0.08923,-0.171222 -0.08682,-0.05788 -0.349678,-0.08923 l -0.151928,-0.01929 q -0.576365,-0.07235 -0.807875,-0.267684 -0.231511,-0.195337 -0.231511,-0.593246 0,-0.429259 0.294211,-0.636653 0.294212,-0.207395 0.901926,-0.207395 0.238746,0 0.501606,0.03617 0.262861,0.03617 0.571542,0.113344 z"
         style="font-weight:bold;-inkscape-font-specification:'sans-serif Bold'"
         id="path82759" />
      <path
         d="m 57.748179,54.545053 v -1.649512 h 0.868165 v 0.270096 q 0,0.219452 -0.0024,0.552249 -0.0024,0.330384 -0.0024,0.441316 0,0.325562 0.01688,0.470256 0.01688,0.142283 0.05788,0.207395 0.05305,0.08441 0.137459,0.130224 0.08682,0.04582 0.197749,0.04582 0.270095,0 0.424436,-0.207395 0.15434,-0.207394 0.15434,-0.576364 v -1.333597 h 0.863341 v 2.700956 h -0.863341 v -0.390674 q -0.195337,0.236333 -0.41479,0.349677 -0.217041,0.110932 -0.479901,0.110932 -0.467845,0 -0.713824,-0.286976 -0.243569,-0.286977 -0.243569,-0.834403 z"
         style="font-weight:bold;-inkscape-font-specification:'sans-serif Bold'"
         id="path82761" />
      <path
         d="m 62.503791,54.381067 q -0.270096,0 -0.407555,0.09164 -0.135048,0.09164 -0.135048,0.270096 0,0.163986 0.10852,0.258037 0.110933,0.09164 0.306269,0.09164 0.243569,0 0.409967,-0.173633 0.166398,-0.176044 0.166398,-0.438905 v -0.09887 z m 1.319127,-0.325562 v 1.540992 h -0.870576 v -0.400321 q -0.173633,0.24598 -0.390674,0.359324 -0.217041,0.110932 -0.528133,0.110932 -0.419613,0 -0.682474,-0.243568 -0.260449,-0.24598 -0.260449,-0.636654 0,-0.475079 0.325562,-0.696943 0.327973,-0.221864 1.027327,-0.221864 h 0.508841 v -0.06752 q 0,-0.204983 -0.161575,-0.299034 -0.161575,-0.09646 -0.504018,-0.09646 -0.27733,0 -0.516075,0.05547 -0.238745,0.05547 -0.443728,0.166398 v -0.658358 q 0.27733,-0.06752 0.557072,-0.101286 0.279742,-0.03617 0.559483,-0.03617 0.730705,0 1.053855,0.289388 0.325562,0.286976 0.325562,0.935688 z"
         style="font-weight:bold;-inkscape-font-specification:'sans-serif Bold'"
         id="path82763" />
      <path
         d="m 64.625969,51.844098 h 0.863341 v 3.752399 h -0.863341 z"
         style="font-weight:bold;-inkscape-font-specification:'sans-serif Bold'"
         id="path82765" />
      <path
         d="m 66.31889,52.895541 h 0.863341 v 2.700956 H 66.31889 Z m 0,-1.051443 h 0.863341 v 0.704177 H 66.31889 Z"
         style="font-weight:bold;-inkscape-font-specification:'sans-serif Bold'"
         id="path82767" />
      <path
         d="m 67.879174,52.895541 h 2.356102 v 0.602892 l -1.422825,1.480702 h 1.422825 v 0.617362 h -2.416391 v -0.602892 l 1.422825,-1.480703 h -1.362536 z"
         style="font-weight:bold;-inkscape-font-specification:'sans-serif Bold'"
         id="path82769" />
      <path
         d="m 72.097006,54.381067 q -0.270096,0 -0.407555,0.09164 -0.135048,0.09164 -0.135048,0.270096 0,0.163986 0.10852,0.258037 0.110932,0.09164 0.306269,0.09164 0.243569,0 0.409967,-0.173633 0.166398,-0.176044 0.166398,-0.438905 v -0.09887 z m 1.319127,-0.325562 v 1.540992 h -0.870576 v -0.400321 q -0.173633,0.24598 -0.390674,0.359324 -0.217041,0.110932 -0.528133,0.110932 -0.419613,0 -0.682474,-0.243568 -0.260449,-0.24598 -0.260449,-0.636654 0,-0.475079 0.325562,-0.696943 0.327973,-0.221864 1.027327,-0.221864 h 0.508841 v -0.06752 q 0,-0.204983 -0.161575,-0.299034 -0.161575,-0.09646 -0.504018,-0.09646 -0.27733,0 -0.516075,0.05547 -0.238745,0.05547 -0.443728,0.166398 v -0.658358 q 0.27733,-0.06752 0.557072,-0.101286 0.279742,-0.03617 0.559483,-0.03617 0.730705,0 1.053855,0.289388 0.325562,0.286976 0.325562,0.935688 z"
         style="font-weight:bold;-inkscape-font-specification:'sans-serif Bold'"
         id="path82771" />
      <path
         d="m 75.162108,52.128663 v 0.766878 h 0.889868 v 0.617361 h -0.889868 v 1.145495 q 0,0.188102 0.07476,0.255626 0.07476,0.06511 0.296622,0.06511 h 0.443729 v 0.617362 h -0.740351 q -0.511253,0 -0.725882,-0.212218 -0.212218,-0.21463 -0.212218,-0.725882 V 53.5129 h -0.429259 v -0.617361 h 0.429259 v -0.766878 z"
         style="font-weight:bold;-inkscape-font-specification:'sans-serif Bold'"
         id="path82773" />
      <path
         d="m 76.580109,52.895541 h 0.863341 v 2.700956 h -0.863341 z m 0,-1.051443 h 0.863341 v 0.704177 h -0.863341 z"
         style="font-weight:bold;-inkscape-font-specification:'sans-serif Bold'"
         id="path82775" />
      <path
         d="m 79.558395,53.44779 q -0.286976,0 -0.438905,0.207395 -0.149517,0.204983 -0.149517,0.593245 0,0.388263 0.149517,0.595658 0.151929,0.204983 0.438905,0.204983 0.282154,0 0.431671,-0.204983 0.149517,-0.207395 0.149517,-0.595658 0,-0.388262 -0.149517,-0.593245 -0.149517,-0.207395 -0.431671,-0.207395 z m 0,-0.617361 q 0.696943,0 1.087617,0.376204 0.393085,0.376205 0.393085,1.041797 0,0.665593 -0.393085,1.041798 -0.390674,0.376204 -1.087617,0.376204 -0.699354,0 -1.094851,-0.376204 -0.393086,-0.376205 -0.393086,-1.041798 0,-0.665592 0.393086,-1.041797 0.395497,-0.376204 1.094851,-0.376204 z"
         style="font-weight:bold;-inkscape-font-specification:'sans-serif Bold'"
         id="path82777" />
      <path
         d="m 84.381529,53.951808 v 1.644689 h -0.868165 v -0.267684 -0.991155 q 0,-0.349677 -0.01688,-0.482313 -0.01447,-0.132636 -0.05305,-0.195337 -0.05064,-0.0844 -0.137459,-0.130225 -0.08682,-0.04823 -0.197749,-0.04823 -0.270096,0 -0.424436,0.209806 -0.15434,0.207395 -0.15434,0.576365 v 1.328774 h -0.863341 v -2.700956 h 0.863341 v 0.395497 q 0.195337,-0.236333 0.414789,-0.347266 0.219453,-0.113343 0.484726,-0.113343 0.467844,0 0.709,0.286976 0.243569,0.286977 0.243569,0.834403 z"
         style="font-weight:bold;-inkscape-font-specification:'sans-serif Bold'"
         id="path82779" />
    </g>
  </g>
</svg>
